<?xml version="1.0" encoding="UTF-8" standalone="no"?>
<!-- Generator: Adobe Illustrator 22.0.1, SVG Export Plug-In . SVG Version: 6.00 Build 0)  -->

<svg
   xmlns:dc="http://purl.org/dc/elements/1.1/"
   xmlns:cc="http://creativecommons.org/ns#"
   xmlns:rdf="http://www.w3.org/1999/02/22-rdf-syntax-ns#"
   xmlns:svg="http://www.w3.org/2000/svg"
   xmlns="http://www.w3.org/2000/svg"
   xmlns:sodipodi="http://sodipodi.sourceforge.net/DTD/sodipodi-0.dtd"
   xmlns:inkscape="http://www.inkscape.org/namespaces/inkscape"
   version="1.1"
   id="Calque_1"
   x="0px"
   y="0px"
   viewBox="0 0 793 180"
   style="enable-background:new 0 0 793 180;"
   xml:space="preserve"
   sodipodi:docname="header.svg"
   inkscape:version="0.92.3 (2405546, 2018-03-11)"><metadata
   id="metadata3737"><rdf:RDF><cc:Work
       rdf:about=""><dc:format>image/svg+xml</dc:format><dc:type
         rdf:resource="http://purl.org/dc/dcmitype/StillImage" /></cc:Work></rdf:RDF></metadata><defs
   id="defs3735" /><sodipodi:namedview
   pagecolor="#ffffff"
   bordercolor="#666666"
   borderopacity="1"
   objecttolerance="10"
   gridtolerance="10"
   guidetolerance="10"
   inkscape:pageopacity="0"
   inkscape:pageshadow="2"
   inkscape:window-width="1920"
   inkscape:window-height="1017"
   id="namedview3733"
   showgrid="false"
   inkscape:zoom="2.2194199"
   inkscape:cx="378.47727"
   inkscape:cy="71.977273"
   inkscape:window-x="-9"
   inkscape:window-y="25"
   inkscape:window-maximized="1"
   inkscape:current-layer="Calque_1" />
<style
   type="text/css"
   id="style3726">
	.st0{fill:#333333;}
</style>
<g
   transform="matrix(0.095238,0,0,-0.04747705,-2245,2639.0832)"
   id="g3730"
   clip-path="none">
	<path
   class="st0"
   d="m 23568.1,54825.2 c 0,-609 0.1,-761.8 0.5,-761.9 0.5,-0.2 25.1,-2.4 44.1,-4.1 7.4,-0.6 15,-1.3 16.9,-1.5 1.9,-0.2 6.9,-0.6 11,-0.9 14.5,-1.1 36.7,-3 63.6,-5.4 17.2,-1.5 36.1,-3.2 50.6,-4.5 22.7,-2 31.3,-2.7 33.4,-2.9 1.1,-0.1 5.1,-0.4 8.9,-0.8 19.9,-1.7 34.8,-3 40.5,-3.5 3.5,-0.3 10.5,-0.9 15.5,-1.4 5,-0.4 12.6,-1.1 16.9,-1.5 4.2,-0.4 15,-1.4 23.9,-2.1 8.8,-0.7 20,-1.7 24.8,-2.1 4.8,-0.4 14.7,-1.3 22.1,-1.9 7.4,-0.6 18.3,-1.6 24.3,-2.1 15,-1.4 32.5,-2.9 56.2,-4.8 12.8,-1.1 29.9,-2.6 36.6,-3.3 3.1,-0.3 7,-0.6 8.5,-0.7 4.1,-0.3 17.1,-1.4 44.6,-3.9 13.1,-1.1 26.4,-2.3 29.5,-2.5 3.1,-0.2 6.7,-0.6 8.1,-0.8 1.4,-0.2 7.6,-0.7 13.8,-1.1 6.2,-0.4 12.5,-0.9 14,-1.2 1.5,-0.2 8.1,-0.8 14.7,-1.3 6.6,-0.5 16.7,-1.4 22.5,-1.9 5.8,-0.5 15.8,-1.4 22.3,-2 6.5,-0.5 15.5,-1.3 19.9,-1.8 4.5,-0.4 13.4,-1.2 19.8,-1.7 6.4,-0.5 13.2,-1.2 15.1,-1.4 1.9,-0.2 12.9,-1.2 24.5,-2.1 30.5,-2.5 45.6,-3.8 67.7,-5.8 3.5,-0.3 16.4,-1.4 28.7,-2.5 12.3,-1.1 24.1,-2.1 26.4,-2.3 5.1,-0.5 24.8,-2.2 69,-6 15.1,-1.3 27.4,-2.4 45.8,-4.1 4.8,-0.4 13.8,-1.2 20,-1.8 6.2,-0.5 15.2,-1.3 20,-1.7 4.8,-0.4 14.8,-1.3 22.3,-2 7.5,-0.7 19.4,-1.7 26.6,-2.3 12.9,-1.1 23,-2 49,-4.2 7.5,-0.7 17.5,-1.5 22.3,-2 4.8,-0.4 13.7,-1.2 19.8,-1.7 14.7,-1.3 30.7,-2.7 44.4,-3.9 25.6,-2.3 38.2,-3.4 49.1,-4.3 13.4,-1.1 31,-2.7 39.6,-3.5 3.3,-0.3 12.3,-1.1 19.9,-1.7 7.7,-0.7 14.8,-1.3 15.9,-1.4 1.1,-0.1 8.1,-0.7 15.7,-1.4 31.5,-2.6 67.9,-5.9 73.9,-6.6 1.7,-0.2 7.1,-0.6 12,-0.9 4.9,-0.3 11.2,-0.9 14,-1.1 5.4,-0.6 12,-1.2 18,-1.6 2,-0.1 6.7,-0.5 10.5,-1 3.7,-0.4 8.4,-0.8 10.5,-0.9 2,-0.1 14.3,-1.2 27.1,-2.3 12.9,-1.1 30.8,-2.7 39.7,-3.5 20.7,-1.8 31.9,-2.7 80.1,-7 5.8,-0.5 15.8,-1.4 22.1,-1.9 6.3,-0.5 15.4,-1.3 20.2,-1.7 4.8,-0.4 15.6,-1.4 24,-2.1 8.4,-0.7 21.4,-1.9 28.9,-2.5 7.5,-0.7 18.5,-1.6 24.5,-2.1 5.9,-0.5 17,-1.5 24.6,-2.1 15.3,-1.3 31.4,-2.7 57.4,-5.1 19,-1.7 43.8,-3.9 57.6,-5.1 17.6,-1.5 49.7,-4.3 55.8,-4.8 3.4,-0.3 12.3,-1.1 19.8,-1.7 7.5,-0.6 16.5,-1.4 20,-1.7 9,-0.8 26.8,-2.4 37.6,-3.3 5,-0.4 15.1,-1.3 22.5,-1.9 7.4,-0.7 17.4,-1.5 22.3,-2 25.3,-2.1 58.3,-5 79.7,-7 9.3,-0.9 22.1,-2 28.5,-2.5 6.4,-0.5 13.5,-1.1 15.9,-1.4 2.4,-0.2 10.2,-0.9 17.5,-1.5 7.2,-0.7 14.1,-1.3 15.3,-1.4 11.7,-1.1 35.9,-3.2 51,-4.5 10.2,-0.9 20.1,-1.7 21.9,-1.9 1.8,-0.2 8.9,-0.9 15.7,-1.4 12.8,-1 26.7,-2.2 45.2,-3.9 12.6,-1.1 17.4,-1.5 43.8,-3.9 11,-0.9 25.9,-2.3 33.1,-2.9 7.3,-0.6 18.4,-1.6 24.6,-2.1 17.5,-1.5 37.6,-3.2 47.3,-4.1 4.8,-0.4 12.7,-1.1 17.5,-1.5 4.8,-0.4 15.8,-1.4 24.4,-2.1 8.6,-0.7 19.6,-1.7 24.5,-2.1 4.8,-0.4 15.4,-1.4 23.5,-2.1 8.2,-0.7 23.2,-2.1 33.4,-2.9 10.2,-0.8 22.2,-1.9 26.8,-2.3 12.7,-1.2 32.4,-3 47.9,-4.2 7.7,-0.7 14.8,-1.3 15.9,-1.4 1.1,-0.1 5.2,-0.5 9.1,-0.8 3.9,-0.3 10,-0.8 13.5,-1.1 3.5,-0.3 12.4,-1.1 19.8,-1.7 7.4,-0.6 18.3,-1.6 24.4,-2.1 6.1,-0.5 14.1,-1.2 17.8,-1.5 3.7,-0.3 13.8,-1.2 22.3,-1.9 8.5,-0.7 18.5,-1.6 22.3,-1.9 3.7,-0.3 10.4,-0.9 14.9,-1.4 8.2,-0.8 26.3,-2.4 34.9,-3.1 2.5,-0.2 13.8,-1.2 25,-2.1 11.2,-1 23.5,-2 27.3,-2.3 3.8,-0.3 8.8,-0.8 11.1,-0.9 2.2,-0.2 8.2,-0.7 13.2,-1.2 5,-0.4 10.7,-1 12.6,-1.2 1.9,-0.2 8.5,-0.8 14.7,-1.3 22.6,-2 25,-2.2 35.9,-3.1 6.1,-0.5 14.1,-1.2 17.8,-1.5 3.7,-0.3 14.7,-1.3 24.5,-2.1 9.7,-0.9 20.7,-1.8 24.4,-2.1 3.7,-0.3 8.9,-0.8 11.5,-1 2.5,-0.2 11.6,-1 20.2,-1.7 19.3,-1.7 43.5,-3.8 57.7,-5.1 6,-0.5 17,-1.5 24.5,-2.1 7.5,-0.7 16.2,-1.4 19.6,-1.8 5.4,-0.5 14.9,-1.3 23.3,-2 1.6,-0.1 5.2,-0.5 7.9,-0.8 2.8,-0.3 7.5,-0.7 10.5,-0.9 7,-0.5 33.7,-2.8 66.7,-5.8 14.3,-1.3 29.4,-2.6 33.5,-3 4.2,-0.3 11.3,-0.9 15.9,-1.3 10.2,-0.9 30.1,-2.7 48.3,-4.3 7.5,-0.6 17.5,-1.5 22.3,-2 4.8,-0.4 13.7,-1.2 19.8,-1.7 6.1,-0.5 18,-1.5 26.6,-2.3 31,-2.7 46.8,-4.1 66.9,-5.8 6.3,-0.5 13.1,-1.1 15.1,-1.4 2,-0.2 8.8,-0.8 14.9,-1.3 26.1,-2.2 53.5,-4.6 63.6,-5.5 13.5,-1.2 25.1,-2.3 37.2,-3.2 5.1,-0.4 11.9,-1 15.1,-1.3 3.2,-0.3 9.3,-0.9 13.5,-1.2 4.3,-0.3 8.2,-0.7 8.6,-0.8 0.5,-0.1 7.4,-0.7 15.3,-1.4 7.9,-0.7 14.5,-1.3 14.7,-1.3 0.1,-0.1 3.4,-0.3 7.2,-0.6 8.6,-0.5 20.4,-1.5 21.2,-1.8 0.3,-0.1 6.2,-0.6 13.2,-1.1 6.9,-0.5 13,-1.1 13.5,-1.2 1,-0.2 19.2,-1.8 28.9,-2.5 3,-0.2 10.9,-0.9 17.5,-1.5 6.6,-0.6 17.2,-1.6 23.6,-2.1 15.7,-1.4 25,-2.2 70.8,-6.2 6,-0.5 14.1,-1.3 17.8,-1.5 8.9,-0.8 61.8,-5.4 80.8,-7 3.6,-0.3 9.3,-0.9 12.6,-1.1 3.3,-0.3 15.4,-1.4 27,-2.3 11.5,-1 21.6,-1.9 22.5,-2 0.9,-0.1 6.1,-0.5 11.7,-0.9 7.8,-0.6 10.8,-0.7 13,-0.4 4.9,0.7 25.4,2.5 53.8,4.9 6.5,0.5 13.3,1.1 15.2,1.4 3,0.3 16.2,1.5 37.1,3.3 27.4,2.3 34.9,3 42.6,3.7 4.8,0.4 14.8,1.3 22.3,1.9 7.5,0.7 24.2,2.1 37.2,3.3 35,3.1 44.1,3.9 57.2,5 6.5,0.5 12.7,1 13.8,1.1 3.1,0.3 22.2,2 41.9,3.7 10,0.9 23.1,2 29.1,2.5 6,0.5 15.1,1.3 20.4,1.8 5.2,0.4 14.1,1.2 19.8,1.8 5.6,0.5 15.3,1.4 21.5,1.9 13.9,1.2 19.4,1.7 26.6,2.4 3.1,0.3 11.9,1 19.6,1.7 7.7,0.7 14.8,1.3 15.7,1.4 0.9,0.1 3.8,0.4 6.4,0.6 5.5,0.4 26.4,2.3 44.8,3.9 7.1,0.6 24.1,2.1 37.8,3.3 25.9,2.3 45.3,4 59.7,5.2 9.9,0.9 27.1,2.4 40.2,3.5 5,0.4 13,1.1 17.6,1.5 9.5,0.9 24,2.1 44.2,3.9 17.2,1.5 36.7,3.2 53.3,4.7 7.1,0.6 19.1,1.7 26.6,2.3 16.2,1.4 31.5,2.7 49,4.3 27.2,2.4 40.7,3.5 56,4.8 8.8,0.7 17.6,1.5 19.6,1.8 4.2,0.4 12.4,1.2 44.2,3.9 26.6,2.3 48,4.1 65.9,5.8 6.9,0.6 23.7,2.1 37.4,3.3 13.6,1.2 26.6,2.3 28.7,2.5 4.2,0.4 8.7,0.8 47.3,4 14.1,1.2 29.2,2.5 33.7,2.9 4.5,0.4 13.2,1.2 19.4,1.8 6.2,0.5 17.1,1.5 24.3,2.1 7.1,0.6 19.2,1.7 26.7,2.3 7.6,0.7 16.4,1.4 19.6,1.8 3.2,0.3 9.5,0.9 14,1.2 4.5,0.3 10.2,0.9 12.8,1.1 2.5,0.3 8.8,0.8 13.8,1.1 5,0.4 12.1,1 15.9,1.4 3.7,0.4 9.4,0.9 12.6,1.1 3.2,0.2 9.3,0.8 13.6,1.2 4.2,0.4 9.2,0.9 11.1,1 1.8,0.1 6.9,0.6 11.3,1 4.4,0.4 11.1,1 15.1,1.3 15.6,1.3 21.5,1.8 31.2,2.7 5.5,0.5 16.2,1.5 23.7,2.1 36,3 46.8,4 54.6,4.7 10.8,1 22.9,2.1 37.2,3.3 6.2,0.5 14,1.2 17.5,1.5 3.4,0.3 14.6,1.3 24.8,2.2 10.2,0.9 21.1,1.8 24,2.1 7.2,0.7 24.9,2.3 88.4,7.8 3.8,0.3 11.9,1 17.8,1.5 6,0.5 17,1.5 24.4,2.1 7.5,0.7 21.3,1.9 30.6,2.7 21.7,1.9 50.9,4.4 60.7,5.2 4.2,0.3 8.5,0.7 9.7,0.8 1.1,0.1 5.8,0.5 10.3,0.9 4.5,0.4 11.5,1 15.7,1.4 4.2,0.3 10.1,0.9 13.2,1.2 6.7,0.7 16.5,1.5 23.5,2.1 11.5,0.9 42.5,3.6 56.2,4.9 8.1,0.7 17.9,1.6 21.7,1.9 3.8,0.3 8.9,0.8 11.2,1 2.4,0.2 8.5,0.7 13.6,1.1 5.1,0.4 10.1,0.9 11,0.9 1,0.1 6,0.5 11,1 5.1,0.4 10,0.9 10.9,0.9 0.9,0.1 10.8,1 22.1,1.9 22.3,1.9 42.6,3.7 55.4,4.9 4.5,0.4 10.4,0.9 13.2,1.1 2.8,0.2 10,0.9 16.1,1.4 6.1,0.5 17.2,1.5 24.6,2.1 16.2,1.4 36.6,3.2 47.5,4.2 4.4,0.4 10.4,0.9 13.4,1.1 3,0.3 9.2,0.8 13.8,1.2 4.6,0.4 11.5,1 15.3,1.4 3.8,0.3 14,1.2 22.5,2 8.5,0.8 20.4,1.8 26.4,2.3 5.9,0.5 17.8,1.5 26.4,2.3 22.3,1.9 41.3,3.6 54.6,4.7 6.4,0.5 14,1.2 16.9,1.5 2.9,0.3 7.4,0.7 10.1,1 14.5,1.2 21.1,1.8 40.7,3.5 11.8,1.1 28.7,2.5 37.6,3.3 8.9,0.8 20.8,1.8 26.6,2.3 5.8,0.5 19.7,1.8 31,2.7 11.3,1 27.6,2.4 36.1,3.1 15.8,1.4 32.3,2.8 45.2,3.9 4,0.3 10.8,0.9 15.3,1.4 4.5,0.4 17.2,1.5 28.3,2.5 11.1,0.9 27.1,2.3 35.5,3.1 8.4,0.7 18.4,1.6 22.1,2 10,0.9 27.6,2.4 42.1,3.7 27.9,2.5 57.3,5 62.4,5.4 3,0.2 9.1,0.7 13.6,1.2 4.5,0.4 14.1,1.3 21.3,1.9 33.2,2.9 40.4,3.5 53.3,4.7 7.6,0.7 19.6,1.7 26.8,2.3 7.1,0.6 15.5,1.3 18.6,1.5 3.1,0.2 8,0.7 11.1,0.9 5.9,0.6 21.8,2 50.2,4.5 21.5,1.9 58.4,5.1 73.5,6.4 12.1,1.1 30.5,2.7 50.8,4.5 33,2.9 66.9,5.9 74.8,6.6 2.4,0.2 9.5,0.8 15.9,1.3 17.5,1.5 29,2.5 33.4,2.9 2.1,0.2 7.9,0.7 12.8,1.1 4.9,0.4 18.9,1.6 31.2,2.7 12.3,1.1 27.4,2.4 33.7,3 10.1,0.9 29.9,2.6 48.5,4.2 3.5,0.3 8.6,0.7 11.2,0.9 2.7,0.2 5.7,0.5 6.8,0.6 1.1,0.1 5,0.4 8.7,0.8 3.7,0.3 12.7,1.1 20,1.7 7.2,0.7 16.2,1.4 20,1.7 3.7,0.3 13.7,1.2 22.3,2 17.6,1.5 38,3.4 51.2,4.5 24.3,2.1 41.1,3.5 48.7,4.2 9.5,0.9 19.9,1.8 39.4,3.5 7.5,0.6 17.5,1.5 22.3,1.9 15.9,1.4 31.1,2.7 40.1,3.5 4.9,0.4 16,1.4 24.6,2.1 8.6,0.7 18.8,1.6 22.5,2 3.7,0.3 11.5,1 17.2,1.5 13.4,1.2 31.1,2.8 37.6,3.3 2.8,0.2 12.9,1.1 22.5,1.9 32.9,2.9 44.2,3.9 51.2,4.5 3.8,0.3 12.6,1.1 19.6,1.7 20.6,1.9 92.6,8.2 115.6,10.1 5,0.4 14.8,1.3 21.7,1.9 6.9,0.6 18.7,1.7 26.3,2.3 7.6,0.6 18.7,1.6 24.8,2.1 6.1,0.5 16.1,1.4 22.3,1.9 6.2,0.5 11.9,1 12.8,1.1 3.3,0.4 33.6,3 38.1,3.2 l 4.8,0.3 v 761.6 761.7 h -4163.7 -4163.6 v -761.8 z"
   id="path3728"
   inkscape:connector-curvature="0"
   style="fill:#333333" />
</g>
</svg>