<?xml version="1.0" encoding="utf-8"?>
<!-- Generator: Adobe Illustrator 22.0.1, SVG Export Plug-In . SVG Version: 6.00 Build 0)  -->
<svg version="1.1" id="Calque_1" xmlns="http://www.w3.org/2000/svg" xmlns:xlink="http://www.w3.org/1999/xlink" x="0px" y="0px"
	 viewBox="0 0 1684 1684.5" style="enable-background:new 0 0 1684 1684.5;" xml:space="preserve">
<g transform="translate(-158.454115,1841.950612) rotate(-360.00) scale(0.095238,-0.095238)">
	<path d="M10234,18130.8c-1314.2-60.5-2583.4-456.2-3705.7-1156.9c-690.3-431.1-1339.2-1003.1-1865.4-1645.9
		c-508.9-620.4-925.4-1336.6-1215.7-2090.9c-263.5-684.3-419-1372.9-486.4-2148.8c-22.5-264.4-22.5-925.3,0-1188.9
		c89.9-1039.4,344.7-1950.9,795.7-2844.3c482.1-953.9,1127.5-1761.7,1967.3-2461.6c610-508,1354.8-942.6,2113.4-1234.7
		c689.5-265.2,1374.6-420.8,2152.2-487.3c263.5-22.5,924.5-22.5,1188,0c1277,109.7,2401.9,481.3,3461.2,1142.2
		c690.3,431.1,1338.3,1003.1,1864.5,1645.1c509.8,621.2,925.3,1337.5,1216.5,2091.8c221.2,575.4,368.1,1163,447.6,1785.9
		c44.9,356.8,54.4,520.1,54.4,957.3c0,437.2-9.5,599.6-54.4,957.3c-140.8,1111.1-508.9,2144.5-1104.2,3097.5
		c-427.7,685.2-971.1,1303.8-1620,1844.7c-1159.5,965.1-2632.6,1572.5-4152.4,1711.6C10977.1,18133.3,10529.5,18143.7,10234,18130.8
		z M11100.6,17846.5c1655.4-118.4,3202-778.5,4429.8-1889.6c146.9-133.1,468.3-459.7,591.8-600.5
		c676.5-775,1159.5-1626.1,1477.5-2602.4c330.9-1016.1,432.9-2141,291.2-3226.2c-176.3-1347-737.9-2647.3-1595.8-3692.8
		c-208.2-254-528.8-591-764.6-804.4c-1151.7-1042.9-2591.2-1691.7-4130.8-1861.9c-288.6-32-464-40.6-816.5-40.6
		c-353.4,0-529.6,8.6-816.5,40.6C8227.8,3339,6788.4,3987.8,5635.8,5030.7c-146,132.2-468.3,458.8-591,600.5
		C4008,6818.3,3386.8,8261.2,3244.2,9813c-167.6,1830,344.7,3640.9,1443.8,5103.7c502,667.9,1131.8,1262.3,1822.2,1719.4
		c1117.2,738.7,2360.5,1148.3,3705.7,1219.1C10398.2,17864.6,10914,17859.5,11100.6,17846.5z"/>
	<path d="M7219.5,14616c-49.2-11.2-78.6-28.5-118.4-68.3c-42.3-42.3-57.9-70-70-129.6l-9.5-44.9l-210.8-2.6
		c-229-3.5-237.6-5.2-275.6-60.5c-15.6-23.3-16.4-131.3-16.4-2809.7V8715.7l19-40.6c25.1-52.7,78.6-106.3,131.3-131.3l40.6-19
		h3873.3h3874.2l40.6,19c51.8,25.1,106.3,78.6,130.5,131.3l19,40.6v2784.7c0,2678.4,0,2786.4-16.4,2809.7
		c-37.2,55.3-45.8,57-275.6,60.5l-210,2.6l-9.5,44.9c-5.2,25.1-15.6,56.2-22.5,70c-20.7,38.9-79.5,93.3-123.6,114l-40.6,19h-1233.8
		c-1017.8,0-1245-1.7-1297.7-12.1c-199.6-39.7-374.1-129.6-518.4-267c-163.3-154.7-272.2-364.6-304.1-582.3l-11.2-77.8l-14.7,89
		c-54.4,326.6-256.6,599.6-552.1,746.5c-77.8,38.9-146.9,63.1-245.4,87.3c-63.9,14.7-152.9,15.6-1293.4,17.3
		C7769.9,14623.8,7239.4,14621.2,7219.5,14616z M9748.4,14346.4c286-79.5,491.6-288.6,558.1-565.9c18.1-74.3,18.1-108.9,18.1-2196.3
		v-2122l-61.3,56.2c-178,162.4-380.2,250.6-620.4,272.2c-62.2,5.2-548.6,8.6-1234.7,8.6l-1131.8,0.9v2280.1
		c0,1253.7,2.6,2282.7,6,2286.2c4.3,3.5,543.5,5.2,1200.1,3.5l1193.2-2.6L9748.4,14346.4z M13887.9,12083.6l2.6-2283.6l-1131.8-0.9
		c-686.9,0-1172.5-3.5-1235.5-8.6c-239.3-21.6-441.5-109.7-620.4-272.2l-60.5-56.2v2115.1c0,2332-4.3,2176.4,55.3,2320.7
		c107.1,256.6,352.5,438.9,624.7,464c42.3,4.3,591.8,6.9,1220,6l1143.1-0.9L13887.9,12083.6z M7025.1,11924.6
		c1.7-2027.8,3.5-2195.4,17.3-2226.5c21.6-48.4,83.8-112.3,133.1-136.5l42.3-20.7l1247.6-4.3l1246.8-4.3l63.1-21.6
		c214.3-72.6,357.7-186.6,457.1-363.7c53.6-96.8,91.6-230.7,92.4-324.9v-47.5l-1775.5,2.6l-1776.4,1.7l-1.7,2658.5
		c-1.7,1461.9-0.9,2662.9,1.7,2668.9c3.5,8.6,37.2,12.1,127,12.1h122.7L7025.1,11924.6z M14393.3,11445.9V8778.8l-1775.5-1.7
		l-1775.5-2.6v47.5c0,94.2,38,228.1,92.4,324.9c99.4,177.1,242.8,291.2,456.2,363.7l63.1,21.6l1247.6,4.3l1247.6,4.3l42.3,20.7
		c48.4,24.2,110.6,88.1,133.1,136.5c13.8,31.1,14.7,198.7,17.3,2226.5l2.6,2193.7l124.4-2.6l124.4-2.6V11445.9z"/>
	<path d="M7730.1,13789.1c-30.2-15.6-48.4-55.3-40.6-89c12.1-57.9-57.9-53.6,1088.6-53.6h1044.6l19.9,20.7
		c25.1,26.8,25.9,77.8,1.7,107.1l-17.3,21.6l-1036.8,1.7C7964.3,13799.5,7748.3,13797.8,7730.1,13789.1z"/>
	<path d="M7723.2,13340.7c-15.6-6-38-51.8-38-76c0-10.4,11.2-31.1,25.9-45.8l26.8-26.8l1044.6,2.6l1044.6,2.6l17.3,21.6
		c26.8,32,23.3,85.5-6,108.9c-24.2,19-25.1,19-1063.6,18.1C8202.7,13345.9,7729.3,13343.3,7723.2,13340.7z"/>
	<path d="M11317.5,13850.5c-15.6-15.6-21.6-32-21.6-54.4s6-39.7,21.6-55.3l22.5-21.6h1043.7c1027.3,0,1043.7,0,1061.9,17.3
		c38,38.9,30.2,105.4-14.7,126.1c-16.4,7.8-307.6,10.4-1056.7,10.4h-1034.2L11317.5,13850.5z"/>
	<path d="M11314.9,13398.6c-25.9-27.6-25.9-81.2-0.9-106.3c17.3-18.1,30.2-18.1,1069.6-18.1h1051.5l19,24.2
		c25.1,32,24.2,70.8-3.5,98.5l-22.5,22.5h-1046.3h-1047.2L11314.9,13398.6z"/>
	<path d="M7122.7,9282.5c-39.7-9.5-88.1-61.3-95.9-102.8c-9.5-51,21.6-111.5,70-133.1c38-17.3,70.8-18.1,1454.1-18.1
		c1391,0,1415.2,0,1451.5,18.1c91.6,44.1,96.8,157.2,10.4,222c-25.1,18.1-25.9,18.1-1442,19.9
		C7791.5,9289.4,7140,9286.8,7122.7,9282.5z"/>
	<path d="M11187.9,9282.5c-89.9-21.6-127-140-63.9-207.4c45.8-49.2-29.4-46.7,1493.9-46.7c1380.7,0,1413.5,0.9,1451.5,18.1
		c48.4,21.6,80.4,82.1,70.8,133.1c-8.6,44.1-56.2,92.4-100.2,102.8C13995,9292.8,11231.9,9292.8,11187.9,9282.5z"/>
	<path d="M5734.3,7287.5v-100.2h58.8h59.6v-685.2v-685.2H5793h-58.8v-104.5v-103.7h265.2c372.4,0,493.3,17.3,657.5,95
		c252.3,119.2,401.8,294.6,471.7,554.7c21.6,80.4,24.2,105.4,24.2,243.6c0,136.5-2.6,163.3-23.3,241.1
		c-82.9,308.5-306.7,528.8-622.9,614.3c-85.5,22.5-95.9,23.3-430.3,26.8l-342.1,3.5V7287.5z M6464.3,7155.3
		c268.7-80.4,443.2-286,478.7-563.3c19-154.7-13-323.1-85.5-446.7c-16.4-28.5-64.8-86.4-107.1-128.7c-89-89-160.7-131.3-286-168.5
		c-70.8-21.6-102-25.1-242.8-28.5l-160.7-5.2v687.7V7189l160.7-4.3C6362.4,7180.3,6393.5,7176.9,6464.3,7155.3z"/>
	<path d="M10052.6,6869.3v-308.5H9948h-103.7v-104.5v-103.7H9948h104.5v-372.4v-371.5h203.9h204.8v99.4v100.2h-95.9h-95v272.2v272.2
		h122.7h122.7v103.7v104.5H10393h-122.7v308.5v308.5h-108.9h-108.9V6869.3z"/>
	<path d="M12066.6,7043.8c-42.3-21.6-72.6-68.3-72.6-113.2c0-118.4,138.2-177.1,221.2-93.3c61.3,60.5,48.4,156.4-25.9,200.4
		C12144.3,7063.7,12109.8,7065.4,12066.6,7043.8z"/>
	<path d="M7826,6573.8c-177.1-43.2-326.6-189.2-371.5-363.7c-44.1-171.1,6-351.7,133.9-478.7c311-309.3,838.9-110.6,864.9,325.7
		C8473.2,6393.2,8156.9,6653.3,7826,6573.8z M8068.8,6348.3c132.2-63.9,197-223.8,147.7-365.5c-21.6-63.1-83.8-131.3-148.6-163.3
		c-44.9-21.6-62.2-25.1-128.7-25.1c-65.7,0.9-84.7,4.3-125.3,25.1c-62.2,32.8-108,79.5-137.4,141.7c-34.6,73.4-33.7,175.4,0.9,246.2
		c40.6,81.2,112.3,142.6,193.5,164.2C7922.8,6385.5,8016.1,6374.2,8068.8,6348.3z"/>
	<path d="M9123.8,6573.8c-91.6-22.5-167.6-65.7-237.6-134.8c-200.5-198.7-200.5-508.9-0.9-707.6c173.7-171.9,430.3-198.7,638.5-65.7
		l38.9,24.2l-63.1,80.4l-63.9,80.4l-56.2-28.5c-51-25.1-64.8-27.6-138.2-27.6c-71.7,0-89,3.5-133.9,25.1
		c-57.9,28.5-104.5,76.9-135.6,141.7c-16.4,33.7-20.7,57.9-20.7,123.6c-0.9,70.8,2.6,88.1,24.2,133.1
		c63.1,127,212.5,190.1,354.2,148.6l51.8-14.7v-86.4v-85.5h90.7h90.7v148.6c0,169.3,5.2,157.2-88.1,203.9
		C9367.4,6585.9,9237.8,6601.5,9123.8,6573.8z"/>
	<path d="M11467.8,6567.8c-27.6-10.4-70-32-95-47.5c-52.7-34.6-140-122.7-164.2-168.5l-17.3-31.1l-6,58.8
		c-3.5,32.8-6,86.4-6.9,120.1l-0.9,61.3h-177.1h-176.3v-99.4v-100.2h81.2h82.1v-276.5v-276.5h-95.9h-95v-100.2v-99.4h281.7h280.8
		v99.4v100.2h-82.9h-82.1l4.3,165c4.3,191.8,13,227.2,74.3,295.5c51.8,57.9,114.9,90.7,198.7,103.7l68.3,11.2l5.2,58.8
		c2.6,32.8,6.9,78.6,9.5,102.8c4.3,39.7,3.5,42.3-15.6,42.3C11527.4,6587.6,11495.5,6579,11467.8,6567.8z"/>
	<path d="M13369.5,6573.8c-110.6-26.8-222.9-109.7-277.3-204.8l-25.1-44.9l-6,75.2c-2.6,41.5-5.2,95-5.2,118.4v43.2h-177.1h-177.1
		v-99.4v-100.2h82.1h81.2v-276.5v-276.5h-95h-95v-100.2v-99.4h280.8h281.7v99.4v100.2h-82.9h-82.9l3.5,165
		c3.5,159.8,4.3,167.6,28.5,216.9c64.8,132.2,225.5,212.5,360.3,179.7c57.9-13.8,108.9-59.6,125.3-114
		c6.9-25.1,11.2-107.1,11.2-242.8v-204.8h-100.2h-99.4v-100.2v-99.4h285.1h286v99.4v100.2h-81.2h-82.1v265.2
		c0,296.4-4.3,329.2-57,398.3C13677.1,6569.5,13523.3,6611,13369.5,6573.8z"/>
	<path d="M14645.6,6574.7c-177.1-39.7-331.8-191.8-378.4-372.4c-70-267.8,108.9-549.5,387.1-609.1c130.5-27.6,274.8-0.9,381,70
		l52.7,34.6v-44.9v-44.1h185.8h185.8v99.4v100.2h-95h-95v375.8v376.7h-85.5h-84.7l-6-28.5c-3.5-15.6-5.2-39.7-5.2-54.4V6452
		l-48.4,36.3c-76,58.8-169.3,92.4-260.1,96.8C14733.8,6586.8,14679.3,6582.5,14645.6,6574.7z M14901.4,6348.3
		c57-27.6,108-81.2,134.8-140c14.7-32,19-60.5,19-119.2c0.9-70-2.6-83.8-29.4-139.1c-21.6-43.2-43.2-71.7-75.2-96.8
		c-60.5-47.5-98.5-58.8-194.4-58.8c-95,0.9-147.7,20.7-206.5,79.5c-153.8,153.8-87.3,435.5,117.5,493.3
		C14734.6,6386.3,14841.8,6377.7,14901.4,6348.3z"/>
	<path d="M11840.2,6461.5v-100.2h85.5h86.4v-276.5v-276.5h-86.4h-85.5v-100.2v-99.4h280.8h281.7v99.4v100.2h-86.4h-86.4v375.8v376.7
		h-195.3h-194.4V6461.5z"/>
</g>
</svg>
